<?xml version="1.0" encoding="UTF-8" standalone="no"?>
<svg
   xmlns:dc="http://purl.org/dc/elements/1.1/"
   xmlns:cc="http://creativecommons.org/ns#"
   xmlns:rdf="http://www.w3.org/1999/02/22-rdf-syntax-ns#"
   xmlns:svg="http://www.w3.org/2000/svg"
   xmlns="http://www.w3.org/2000/svg"
   xmlns:sodipodi="http://sodipodi.sourceforge.net/DTD/sodipodi-0.dtd"
   xmlns:inkscape="http://www.inkscape.org/namespaces/inkscape"
   width="1080"
   height="1080"
   viewBox="0 0 285.74999 285.75001"
   version="1.1"
   id="svg8"
   inkscape:version="1.0.1 (3bc2e813f5, 2020-09-07)"
   sodipodi:docname="charactar12.svg">
  <defs
     id="defs2" />
  <sodipodi:namedview
     id="base"
     pagecolor="#ffffff"
     bordercolor="#666666"
     borderopacity="1.0"
     inkscape:pageopacity="0.0"
     inkscape:pageshadow="2"
     inkscape:zoom="0.98994949"
     inkscape:cx="509.9669"
     inkscape:cy="580.74965"
     inkscape:document-units="mm"
     inkscape:current-layer="layer1"
     inkscape:document-rotation="0"
     showgrid="false"
     units="px"
     inkscape:window-width="1366"
     inkscape:window-height="701"
     inkscape:window-x="0"
     inkscape:window-y="30"
     inkscape:window-maximized="1"
     inkscape:snap-global="false" />
  <metadata
     id="metadata5">
    <rdf:RDF>
      <cc:Work
         rdf:about="">
        <dc:format>image/svg+xml</dc:format>
        <dc:type
           rdf:resource="http://purl.org/dc/dcmitype/StillImage" />
        <dc:title></dc:title>
      </cc:Work>
    </rdf:RDF>
  </metadata>
  <g
     inkscape:label="Layer 1"
     inkscape:groupmode="layer"
     id="layer1">
    <path
       id="path890"
       style="fill:#000000;stroke:#000000;stroke-width:0.999999px;stroke-linecap:butt;stroke-linejoin:miter;stroke-opacity:1"
       d="m 741.48633,530.11914 -405.98242,24.76563 c 0,0 8.25765,196.34976 11.21093,213.50976 2.95327,17.16 -9.91052,117.29888 -18.55078,142.70313 -8.64027,25.4042 -10.36044,39.77763 -6.77929,46.19531 2.87606,5.1541 29.39722,12.27207 54.93359,15.92578 8.54773,-23.5177 8.60967,-56.36769 1.07205,-77.98244 11.31509,15.35688 18.81989,67.27197 18.551,80.04885 14.77587,0.87854 81.23781,2.91162 155.26367,3.94726 6.51747,-29.36692 3.88057,-60.76716 -9.19141,-88.00976 26.92353,21.90324 51.85761,50.31411 50.44047,87.26138 32.85426,9.87523 80.70573,7.80704 105.2275,0.80307 -0.93931,-2.96214 -1.82359,-5.93288 -2.74414,-8.83789 -0.42198,-16.52908 0.64508,-33.05663 0.26172,-49.58594 7.18843,7.60407 6.14363,15.89909 7.47965,28.14734 2.884,12.80785 15.36537,19.78533 21.2098,29.53821 37.64807,-1.36727 63.27246,-3.93272 64.26953,-8.33789 3.80077,-16.7921 -4.68368,-39.29018 -9.96289,-64.69922 -5.27917,-25.40901 -12.42325,-86.83846 -6.70898,-112.55274 5.7143,-25.71428 9.6e-4,-85.69936 -5.71289,-109.98437 -5.71385,-24.28501 -24.28711,-152.85547 -24.28711,-152.85547 z"
       transform="scale(0.26458333)"
       sodipodi:nodetypes="ccssscccccccccccssssc" />
    <ellipse
       style="fill:#000000;stroke:#000000;stroke-width:0.865;stroke-linecap:round;stroke-linejoin:round;paint-order:stroke fill markers"
       id="path851"
       cx="143.57416"
       cy="117.0364"
       rx="61.123943"
       ry="60.654854" />
    <path
       id="path961"
       style="fill:none;stroke:#000000;stroke-width:0.965;stroke-linecap:butt;stroke-linejoin:miter;stroke-miterlimit:4;stroke-dasharray:none;stroke-opacity:1"
       d="m 196.01406,147.07104 c 7.14184,8.42288 7.50247,19.96886 8.80165,30.40032 1.50816,10.00465 4.41716,19.82376 4.54836,30.01121 0.38641,5.61072 -0.4709,11.21812 -0.44199,16.80278 1.03084,11.4441 7.90419,21.08975 11.7315,31.62332 0.18264,1.18552 0.13792,2.39448 -0.0171,3.58022" />
    <path
       id="path855"
       style="fill:#ff9955;stroke:#d45500;stroke-width:0.865;stroke-linecap:round;stroke-linejoin:round;paint-order:stroke fill markers"
       d="m 200.67982,147.19951 c 3.01617,10.2364 -6.99747,12.8973 -12.18956,12.89731 -5.19209,-1e-5 -4.71394,-7.36996 -4.71394,-18.04146 0,-10.6715 10.87379,-17.64274 15.88082,-15.69551 5.70954,2.22043 -1.536,12.15592 1.02268,20.83966 z"
       sodipodi:nodetypes="sssss" />
    <path
       id="path944"
       style="fill:#e6e6e6;stroke:#000000;stroke-width:1.165;stroke-linecap:butt;stroke-linejoin:miter;stroke-miterlimit:4;stroke-dasharray:none;stroke-opacity:1"
       d="m 88.195306,149.32168 c -3.815729,18.70062 -0.02678,37.61236 1.563225,56.28323 0.496828,12.67072 -0.747862,25.96757 -7.228925,37.14338 -1.03977,3.06743 -1.608749,6.2716 -1.980816,9.48157" />
    <path
       id="path953"
       style="fill:none;stroke:#ececec;stroke-width:1.065;stroke-linecap:butt;stroke-linejoin:miter;stroke-miterlimit:4;stroke-dasharray:none;stroke-opacity:1"
       d="m 180.68851,160.77825 c -3.33447,17.25701 3.98373,33.95322 3.17019,51.19571 1.65002,12.95993 -3.72942,25.18445 -1.97641,38.01728 0.20312,2.69518 0.30447,5.41582 -0.0438,8.10434" />
    <path
       id="path858"
       style="fill:#ff9955;stroke:#d45500;stroke-width:0.865;stroke-linecap:round;stroke-linejoin:round;paint-order:stroke fill markers"
       d="m 84.641158,147.19951 c -3.01617,10.2364 6.99747,12.8973 12.18956,12.89731 5.192092,-1e-5 4.713942,-7.36996 4.713942,-18.04146 0,-10.6715 -10.873792,-17.64274 -15.880822,-15.69551 -5.70954,2.22043 1.536,12.15592 -1.02268,20.83966 z"
       sodipodi:nodetypes="sssss" />
    <path
       id="path840"
       style="fill:#ffb380;stroke:#ff7f2a;stroke-width:0.999999px;stroke-linecap:butt;stroke-linejoin:miter;stroke-opacity:1"
       d="m 539.92773,247.55469 c -112.01063,0 -202.79159,90.8546 -202.79101,202.86523 1.5e-4,23.73119 3.52944,57.96776 11.66797,80.25977 v 0 c 0,0 28.40903,128.61821 44.59961,148.95312 12.84423,16.13201 106.09614,90.21797 146.5957,90.41602 44.94853,-1.5631 139.01755,-70.17155 150.9375,-90.41602 11.55114,-19.61804 29.70445,-117.32205 35.37305,-148.95312 10.92001,-25.34865 16.55249,-52.65904 16.55273,-80.25977 C 742.86385,338.38107 652.03885,247.55469 540,247.55469 Z"
       transform="scale(0.26458333)"
       sodipodi:nodetypes="ssccscsccss" />
    <path
       id="path884"
       style="fill:#00ffff;stroke:#000000;stroke-width:0.86711;stroke-linecap:round;stroke-linejoin:round;paint-order:stroke fill markers"
       d="m 142.12841,59.949857 c -29.55329,0 -53.543474,23.673641 -53.908404,52.997283 H 196.07524 C 195.71027,83.616198 171.70845,59.949857 142.14762,59.949857 Z" />
    <path
       id="rect860"
       style="fill:#000000;stroke:#000000;stroke-width:3.26929;stroke-linecap:round;stroke-linejoin:round;paint-order:stroke fill markers"
       d="M 539.92773 247.55469 C 428.77325 247.55469 338.54248 337.02987 337.16992 447.85938 L 742.83008 447.85938 C 741.45736 337.00228 651.1828 247.55469 540 247.55469 L 539.92773 247.55469 z "
       transform="scale(0.26458333)" />
    <path
       id="path969"
       style="fill:none;stroke:#f9f9f9;stroke-width:0.264583px;stroke-linecap:butt;stroke-linejoin:miter;stroke-opacity:1"
       d="m 146.90668,230.10629 c 0.8082,5.66993 6.51262,8.4446 9.3441,12.96592 2.91185,3.72372 5.0857,8.42612 4.29939,13.25182 0.0113,0.53392 0.0789,1.07154 0.25455,1.57829" />
    <ellipse
       style="fill:#000000;stroke:#000000;stroke-width:0.964999;stroke-linecap:round;stroke-linejoin:round;stroke-miterlimit:4;stroke-dasharray:none;paint-order:stroke fill markers"
       id="path991"
       cx="112.94372"
       cy="142.82605"
       rx="4.5040026"
       ry="9.5643225" />
    <ellipse
       style="fill:#000000;stroke:#000000;stroke-width:0.964999;stroke-linecap:round;stroke-linejoin:round;stroke-miterlimit:4;stroke-dasharray:none;paint-order:stroke fill markers"
       id="ellipse993"
       cx="168.444"
       cy="142.82605"
       rx="4.5040026"
       ry="9.5643225" />
    <ellipse
       style="fill:none;stroke:#000000;stroke-width:1.15657;stroke-linecap:round;stroke-linejoin:round;stroke-miterlimit:4;stroke-dasharray:none;paint-order:stroke fill markers"
       id="path1001"
       cx="114.53031"
       cy="144.42265"
       rx="22.832937"
       ry="26.229856" />
    <ellipse
       style="fill:none;stroke:#000000;stroke-width:1.17367;stroke-linecap:round;stroke-linejoin:round;stroke-miterlimit:4;stroke-dasharray:none;paint-order:stroke fill markers"
       id="ellipse1003"
       cx="168.83717"
       cy="144.42265"
       rx="23.170576"
       ry="26.617727" />
    <path
       style="fill:none;stroke:#000000;stroke-width:1.31985;stroke-linecap:butt;stroke-linejoin:miter;stroke-miterlimit:4;stroke-dasharray:none;stroke-opacity:1"
       d="m 137.50979,145.9237 8.11887,0.087"
       id="path1007" />
    <path
       style="fill:none;stroke:#000000;stroke-width:0.264583px;stroke-linecap:butt;stroke-linejoin:miter;stroke-opacity:1"
       d="m 141.14517,150.94322 c 0,0 -0.69134,4.62161 1.91574,6.45481 2.60709,1.83321 4.46116,3.78633 4.46116,3.78633 0,0 -2.24253,1.04998 -3.71592,0.64226 -1.47339,-0.40773 -4.28784,0.31666 -4.28784,0.31666"
       id="path1009" />
  </g>
</svg>
