<?xml version="1.0" encoding="UTF-8" standalone="no"?>
<svg
   xmlns:dc="http://purl.org/dc/elements/1.1/"
   xmlns:cc="http://creativecommons.org/ns#"
   xmlns:rdf="http://www.w3.org/1999/02/22-rdf-syntax-ns#"
   xmlns:svg="http://www.w3.org/2000/svg"
   xmlns="http://www.w3.org/2000/svg"
   xmlns:sodipodi="http://sodipodi.sourceforge.net/DTD/sodipodi-0.dtd"
   xmlns:inkscape="http://www.inkscape.org/namespaces/inkscape"
   width="1280"
   height="1280"
   viewBox="0 0 338.66666 338.66668"
   version="1.1"
   id="svg8"
   inkscape:version="1.0.1 (3bc2e813f5, 2020-09-07)"
   sodipodi:docname="charact1er.svg"
   inkscape:export-filename="/home/surya/Pictures/profile.png"
   inkscape:export-xdpi="96"
   inkscape:export-ydpi="96">
  <defs
     id="defs2">
    <filter
       inkscape:collect="always"
       style="color-interpolation-filters:sRGB"
       id="filter1088"
       x="-0.019102694"
       width="1.0382054"
       y="-0.20143685"
       height="1.4028738">
      <feGaussianBlur
         inkscape:collect="always"
         stdDeviation="0.19236781"
         id="feGaussianBlur1090" />
    </filter>
  </defs>
  <sodipodi:namedview
     id="base"
     pagecolor="#ffffff"
     bordercolor="#666666"
     borderopacity="1.0"
     inkscape:pageopacity="0.0"
     inkscape:pageshadow="2"
     inkscape:zoom="0.35"
     inkscape:cx="527.61367"
     inkscape:cy="709.4897"
     inkscape:document-units="mm"
     inkscape:current-layer="layer1"
     inkscape:document-rotation="0"
     showgrid="false"
     inkscape:snap-global="false"
     inkscape:window-width="1366"
     inkscape:window-height="701"
     inkscape:window-x="0"
     inkscape:window-y="30"
     inkscape:window-maximized="1"
     units="px" />
  <metadata
     id="metadata5">
    <rdf:RDF>
      <cc:Work
         rdf:about="">
        <dc:format>image/svg+xml</dc:format>
        <dc:type
           rdf:resource="http://purl.org/dc/dcmitype/StillImage" />
        <dc:title></dc:title>
      </cc:Work>
    </rdf:RDF>
  </metadata>
  <g
     inkscape:label="Layer 1"
     inkscape:groupmode="layer"
     id="layer1">
    <circle
       style="fill:#ececec;stroke:#808080;stroke-width:2.71521;stroke-linecap:round;stroke-linejoin:round;paint-order:stroke fill markers"
       id="path854"
       cx="169.66649"
       cy="171.95302"
       r="155.03941" />
    <ellipse
       style="fill:#666666;stroke:none;stroke-width:0.365001;stroke-linecap:round;stroke-linejoin:round;paint-order:stroke fill markers;filter:url(#filter1088)"
       id="path858"
       cx="79.288223"
       cy="109.20249"
       rx="12.084231"
       ry="1.1459739"
       transform="matrix(7.4389133,0,0,7.4389133,-416.21356,-527.45663)" />
    <path
       style="fill:#142c39;fill-opacity:1;stroke:#0c1b24;stroke-width:1.96821px;stroke-linecap:butt;stroke-linejoin:miter;stroke-opacity:1"
       d="m 129.05756,195.4446 4.29667,18.0317 c 0,0 8.32391,-3.32477 21.91108,-4.37916 13.58716,-1.05441 33.6594,-1.39024 36.39325,0.32382 2.73386,1.71406 16.9834,5.9112 16.9834,5.9112 l 0.10697,-23.6433 c 0,0 1.401,-1.96159 -13.36062,-1.96159 -14.76161,0 -72.7676,0.0966 -66.6269,2.43786 z"
       id="path11932"
       sodipodi:nodetypes="ccssccssc" />
    <path
       id="rect11936"
       style="fill:#84ccec;fill-opacity:1;stroke:#808080;stroke-width:2.35303;stroke-linecap:round;stroke-linejoin:round;stroke-miterlimit:4;stroke-dasharray:none;stroke-opacity:1;paint-order:stroke fill markers"
       d="m 126.33647,230.71674 h 79.42823 v 45.49284 h -79.42823 z" />
    <path
       style="fill:#ffffff;stroke:#808080;stroke-width:1.96821px;stroke-linecap:butt;stroke-linejoin:miter;stroke-opacity:1"
       d="m 170.13919,207.55873 -24.61812,3.44439 -7.5649,2.06918 c 0,0 -0.9134,7.75002 5.46754,18.29511 6.38095,10.54519 13.4244,13.27841 17.37479,13.84495 3.95042,0.56683 18.39692,1.81977 20.83805,0.0521 2.44112,-1.76867 10.66066,-10.08998 13.62183,-12.59317 2.96112,-2.50329 8.02446,-12.79227 8.02446,-15.29716 0,-2.50484 -11.46493,-8.44714 -16.19083,-9.201 -4.72588,-0.75386 -16.95282,-0.61343 -16.95282,-0.61343 z"
       id="path11934" />
    <path
       id="rect11918"
       style="fill:#cf7163;fill-opacity:1;stroke:#993c2e;stroke-width:2.86773;stroke-linecap:round;stroke-linejoin:round;stroke-miterlimit:4;stroke-dasharray:none;stroke-opacity:1;paint-order:stroke fill markers"
       d="m 168.42481,170.55187 c 11.98545,0 21.63438,10.83929 21.63438,24.30329 v 13.05086 c 0,13.46401 -9.64893,24.30326 -21.63438,24.30326 -11.98548,0 -21.6344,-10.83925 -21.6344,-24.30326 v -13.05086 c 0,-13.464 9.64892,-24.30329 21.6344,-24.30329 z" />
    <path
       style="fill:#c5503f;fill-opacity:1;stroke:#b74738;stroke-width:1.96821px;stroke-linecap:butt;stroke-linejoin:miter;stroke-opacity:1"
       d="m 217.03368,130.68474 c 0,0 -1.05459,-1.50948 1.92594,-2.67095 2.98051,-1.16148 7.91559,2.16184 8.12033,6.29964 0.20466,4.13779 0.24147,11.97406 -1.91908,13.78561 -2.16052,1.8116 -10.33748,5.05976 -10.33748,5.05976 z"
       id="path992" />
    <path
       style="fill:#cf7161;fill-opacity:1;stroke:#b74738;stroke-width:1.96821px;stroke-linecap:butt;stroke-linejoin:miter;stroke-opacity:1"
       d="m 120.15132,130.52895 c 0,0 1.05457,-1.50947 -1.92594,-2.67095 -2.98053,-1.1615 -7.91559,2.16185 -8.12033,6.29964 -0.20474,4.13781 -0.24148,11.97407 1.91908,13.78563 2.1605,1.81155 10.33746,5.05975 10.33746,5.05975 z"
       id="path974" />
    <path
       id="rect11920"
       style="fill:#a94233;fill-opacity:1;stroke:none;stroke-width:2.71521;stroke-linecap:round;stroke-linejoin:round;stroke-miterlimit:4;stroke-dasharray:none;stroke-opacity:1;paint-order:stroke fill markers"
       d="m 170.33434,153.93404 c 12.02769,0 21.71064,9.68292 21.71064,21.71062 v 11.65862 c 0,12.02771 -9.68295,21.71064 -21.71064,21.71064 -12.02771,0 -21.71064,-9.68293 -21.71064,-21.71064 v -11.65862 c 0,-12.0277 9.68293,-21.71062 21.71064,-21.71062 z" />
    <path
       id="path911"
       style="fill:#dd8479;fill-opacity:1;stroke:#b74738;stroke-width:2.7152;stroke-linecap:square;stroke-linejoin:round;stroke-miterlimit:4;stroke-dasharray:none;stroke-opacity:1;paint-order:markers stroke fill"
       d="m 215.45847,124.24095 c 7.07589,51.51165 -22.69049,75.89077 -51.06984,70.93713 -25.47101,-4.44602 -47.17208,-30.95851 -43.90525,-67.58287 3.07947,-34.523962 0.0246,-62.676291 45.58589,-62.759349 50.09921,-0.09139 44.67229,25.066517 49.3892,59.405089 z"
       sodipodi:nodetypes="sssss" />
    <path
       style="fill:none;stroke:#220055;stroke-width:0.743892;stroke-linecap:butt;stroke-linejoin:miter;stroke-miterlimit:4;stroke-dasharray:none;stroke-opacity:1"
       d="m 220.058,72.434056 c 0,0 -5.71942,5.09947 -10.17702,4.485702 -4.45758,-0.613781 -6.11332,-1.160372 -6.11332,-1.160372 0,0 0.45385,3.603327 0.66087,6.250754 0.20722,2.647426 -1.68517,4.279025 -1.87853,7.889008 -0.19336,3.60998 0.3755,11.672982 3.13141,15.567882 2.75594,3.89491 7.67616,12.12961 7.67616,12.12961 0,0 0.28356,2.95835 0.28356,5.78064 0,2.82229 3.50501,6.00486 3.50501,6.00486 0,0 -1.0259,-2.4919 1.74371,-3.07236 2.76964,-0.58045 4.69111,0.92605 4.69111,0.92605 0,0 -1.25844,-6.44616 -1.1264,-10.27027 0.59825,-3.78914 3.90875,-18.531912 5.0311,-21.328322 1.12233,-2.79644 3.34558,-10.828042 1.39921,-15.284592 -1.94641,-4.456587 -8.82689,-7.91859 -8.82689,-7.91859 z"
       id="path44"
       sodipodi:nodetypes="cscssscscsccsscc" />
    <circle
       style="fill:#000000;fill-opacity:1;stroke:#ffffff;stroke-width:1.22742;stroke-linecap:square;stroke-linejoin:round;stroke-miterlimit:4;stroke-dasharray:none;stroke-opacity:1;paint-order:markers stroke fill"
       id="circle916"
       cx="192.89014"
       cy="134.70238"
       r="5.7341666" />
    <path
       style="fill:none;stroke:#000000;stroke-width:1.96821px;stroke-linecap:round;stroke-linejoin:miter;stroke-opacity:1"
       d="m 186.70208,118.36223 c 0,0 2.37686,-5.05155 7.82461,-4.34861 5.44772,0.7029 7.23083,4.36695 7.23083,4.36695"
       id="path918"
       sodipodi:nodetypes="csc" />
    <path
       style="fill:none;stroke:#000000;stroke-width:1.96821px;stroke-linecap:round;stroke-linejoin:miter;stroke-opacity:1"
       d="m 136.53103,119.60826 c 0,0 2.37685,-5.05154 7.82457,-4.34861 5.44773,0.70291 7.23083,4.36696 7.23083,4.36696"
       id="path920"
       sodipodi:nodetypes="csc" />
    <path
       id="path924"
       style="fill:#ffffff;fill-opacity:1;stroke:#616161;stroke-width:1.97131;stroke-linecap:round;stroke-linejoin:round;stroke-miterlimit:4;stroke-dasharray:none;stroke-opacity:1;paint-order:stroke fill markers"
       d="m 168.89785,175.76871 c -6.96856,0.42535 -12.61569,-5.65802 -12.58197,-14.20033 h 25.20619 c -0.29375,8.85908 -5.83489,14.80371 -12.60114,14.20033 -0.009,-7.1e-4 -0.017,0 -0.0227,0 z"
       sodipodi:nodetypes="cccsc" />
    <circle
       style="fill:#d3675f;fill-opacity:1;stroke:#b74738;stroke-width:1.97131;stroke-linecap:round;stroke-linejoin:round;stroke-miterlimit:4;stroke-dasharray:none;stroke-opacity:1;paint-order:stroke fill markers"
       id="path933"
       cx="140.19846"
       cy="156.79659"
       r="8.8130703" />
    <circle
       style="fill:#d3675f;fill-opacity:1;stroke:#b73b38;stroke-width:1.97131;stroke-linecap:round;stroke-linejoin:round;stroke-miterlimit:4;stroke-dasharray:none;stroke-opacity:1;paint-order:stroke fill markers"
       id="circle935"
       cx="197.52199"
       cy="156.79659"
       r="8.8130703" />
    <circle
       style="fill:#000000;fill-opacity:1;stroke:#ffffff;stroke-width:1.22742;stroke-linecap:square;stroke-linejoin:round;stroke-miterlimit:4;stroke-dasharray:none;stroke-opacity:1;paint-order:markers stroke fill"
       id="circle937"
       cx="144.81854"
       cy="134.70238"
       r="5.7341666" />
    <path
       style="fill:#360089;fill-opacity:1;stroke:none;stroke-width:1.96821px;stroke-linecap:butt;stroke-linejoin:miter;stroke-opacity:1"
       d="m 203.77123,75.865715 0.80331,6.6826 c 0,0 -1.53289,3.354925 -1.94123,6.934246 -0.40841,3.579347 1.3598,12.504769 1.3598,12.504769 0,0 1.23386,3.09781 4.24902,7.51663 3.01512,4.41882 5.20773,8.1328 5.20773,8.1328 l 0.27628,6.35942 c 0,0 0.57286,2.58162 0.76649,2.61525 0.19363,0.0335 2.60405,2.75419 2.60405,2.75419 0,0 -0.34791,-0.84496 0.33776,-1.90756 0.68555,-1.0626 2.22371,-1.81151 4.15486,-1.16182 1.93116,0.64972 2.05938,1.03213 2.05938,1.03213 0,0 -1.62207,-9.69589 -1.29982,-10.37654 0.32223,-0.68065 2.16666,-9.56757 2.16666,-9.56757 l 3.33671,-13.800612 c 0,0 2.25819,-6.093311 1.98925,-8.286051 -0.26893,-2.192754 -0.83235,-5.221162 -0.83235,-5.221162 l -4.6783,-5.318035 -4.10309,-2.2442 c 0,0 -2.58158,2.39967 -4.06229,2.707213 -1.48072,0.307518 -4.03999,1.850317 -4.03999,1.850317 z"
       id="path869" />
    <path
       style="fill:#4900b6;fill-opacity:1;stroke:#330080;stroke-width:1.22742;stroke-linecap:butt;stroke-linejoin:miter;stroke-miterlimit:4;stroke-dasharray:none;stroke-opacity:1"
       d="m 115.89826,117.49143 -2.4057,9.98602 c 2.18041,-1.36658 1.11259,-1.00518 3.08162,-1.30053 2.11419,-0.31711 5.25566,5.48322 5.25566,5.48322 l 2.60801,-11.92005 z"
       id="path909"
       sodipodi:nodetypes="ccsccc" />
    <path
       style="fill:#3a0093;fill-opacity:1;stroke:#220055;stroke-width:1.22742;stroke-linecap:butt;stroke-linejoin:miter;stroke-miterlimit:4;stroke-dasharray:none;stroke-opacity:1"
       d="m 218.82049,72.703359 c 2.07106,-4.471924 4.05477,-15.174703 0.49438,-24.137766 -3.56038,-8.963076 -12.18719,-15.227483 -13.93928,-16.827265 -1.75213,-1.599784 -19.77029,-6.623705 -29.2102,-6.623705 -9.43986,0 -30.97216,5.25359 -35.65796,7.096566 -4.68576,1.842992 -19.00738,6.795013 -30.46374,20.774272 -8.36963,10.212755 -12.354898,18.741984 -14.308553,27.81452 -1.931105,8.967841 0.370234,16.719347 5.161493,23.716559 4.75042,6.93758 8.52356,11.31432 14.31739,14.46103 6.39709,3.47436 17.85755,4.32267 23.65672,2.74108 5.7992,-1.58161 14.10565,-5.35649 18.61708,-9.55019 2.48059,-2.30589 22.20993,-22.476865 23.95364,-24.695766 1.7437,-2.218851 9.07555,-10.783277 13.51532,-11.6303 4.4398,-0.84705 5.12172,0.75674 11.20775,1.122043 6.08605,0.365315 8.73153,-1.68946 12.65596,-4.261078 z"
       id="path873"
       sodipodi:nodetypes="csssssssssssssc" />
    <path
       id="path961"
       style="fill:#000080;fill-opacity:1;stroke:none;stroke-width:1.96822px;stroke-linecap:butt;stroke-linejoin:miter;stroke-opacity:1"
       d="m 174.43469,25.168985 c -6.23598,0.330993 -15.96554,2.265489 -23.57627,4.113247 -6.72252,15.085189 -17.4671,36.763141 -28.41991,48.628701 -8.36943,9.066845 -18.59498,12.081205 -27.135953,12.754925 0.661248,4.97155 2.651647,9.554582 5.593253,13.850542 2.23129,3.25861 4.25136,5.9369 6.36209,8.20343 14.24323,-2.2918 32.99618,-24.449734 36.13131,-30.580318 3.25076,-5.912487 23.39605,-42.919953 31.04548,-56.970527 z" />
    <path
       style="fill:#1c6878;fill-opacity:1;stroke:#124750;stroke-width:1.96821px;stroke-linecap:butt;stroke-linejoin:miter;stroke-opacity:1"
       d="m 120.32984,210.46581 c 0,0 7.62087,3.09511 8.31311,6.67788 0.69227,3.58274 2.91716,7.95281 5.98922,11.01734 3.07209,3.06453 10.14314,4.528 10.81816,6.53449 0.6751,2.00658 0.56886,11.73548 2.27641,14.99953 1.70749,3.26404 4.78281,7.48838 4.78281,7.48838 l -0.9767,21.57619 c 0,0 -17.96741,-0.89937 -20.98855,-1.52994 -3.02113,-0.63083 -43.402702,-23.3747 -43.402702,-23.3747 0,0 -1.619038,-25.89229 0,-27.6175 1.619012,-1.72515 6.226988,-13.14517 17.626272,-13.39703 11.39932,-0.25194 15.56197,-2.37464 15.56197,-2.37464 z"
       id="path11924" />
    <path
       style="fill:#1e6676;fill-opacity:1;stroke:#124750;stroke-width:1.96821px;stroke-linecap:butt;stroke-linejoin:miter;stroke-opacity:1"
       d="m 216.72919,210.46581 c 0,0 -7.62087,3.09511 -8.31314,6.67788 -0.69225,3.58274 -2.91714,7.95281 -5.9892,11.01734 -3.07209,3.06453 -10.14315,4.528 -10.81816,6.53449 -0.67508,2.00658 -0.56886,11.73548 -2.27642,14.99953 -1.7075,3.26404 -4.7828,7.48838 -4.7828,7.48838 l 0.9767,21.57619 c 0,0 17.96743,-0.89937 20.98854,-1.52994 3.02113,-0.63083 43.40272,-23.3747 43.40272,-23.3747 1.4866,1.9082 3.85467,-23.02249 0,-27.6175 -1.52055,-1.81257 -6.22701,-13.14517 -17.62628,-13.39703 -11.39932,-0.25194 -15.56196,-2.37464 -15.56196,-2.37464 z"
       id="path11926"
       sodipodi:nodetypes="cssssccccssc" />
    <path
       style="fill:#255169;fill-opacity:1;stroke:#1a394a;stroke-width:1.96821px;stroke-linecap:butt;stroke-linejoin:miter;stroke-opacity:1"
       d="m 128.77481,191.8382 -11.91261,19.29714 c 0,0 10.25025,3.34155 12.01983,8.20151 1.76956,4.85997 5.17397,10.74156 7.7414,12.02238 2.56745,1.28077 15.88208,25.61649 15.88208,25.61649 0,0 1.2592,-13.57964 0.0572,-15.72006 -1.20204,-2.14031 -12.31622,-37.20596 -13.81817,-39.9008 -1.50189,-2.69482 -9.96964,-9.51666 -9.96964,-9.51666 z"
       id="path11928"
       sodipodi:nodetypes="ccsscssc" />
    <path
       style="fill:#255169;fill-opacity:1;stroke:#1a394a;stroke-width:1.96821px;stroke-linecap:butt;stroke-linejoin:miter;stroke-opacity:1"
       d="m 208.69536,191.8382 11.91262,19.29714 c 0,0 -10.25026,3.34155 -12.01983,8.20151 -1.76955,4.85997 -5.17396,10.74156 -7.7414,12.02238 -2.56747,1.28077 -15.88208,25.61649 -15.88208,25.61649 0,0 -1.2592,-13.57964 -0.0572,-15.72006 1.20207,-2.14031 12.31626,-37.20596 13.81817,-39.9008 1.5019,-2.69482 9.96964,-9.51666 9.96964,-9.51666 z"
       id="path11930"
       sodipodi:nodetypes="ccsscssc" />
  </g>
</svg>
